# xmcd
#
# Track frame offsets:
#	150
#	12695
#	23227
#	34550
#	46647
#	58555
#	69710
#	79390
#	91515
#	103087
#	115345
#	127000
#	140472
#	152730
#	165615
#	175962
#	185472
#	203512
#	212962
#	224515
#	235477
#	245927
#	256692
#	269105
#
# Disc length: 3734 seconds
#
# Revision: 7
# Processed by: cddbd v1.5.2PL0 Copyright (c) Steve Scherf et al.
# Submitted via: dBpowerAMP V4.0
#
DISCID=630e9418
DTITLE=Various Artist - Country USA:1960
DYEAR=1960
DGENRE=Country
TTITLE0=Ray Price - One More Time
TTITLE1=Cowboy Copas - Alabam
TTITLE2=Webb Pierce - No Love Have I
TTITLE3=Kitty Wells - Left To Right
TTITLE4=Roy Drusky - Another
TTITLE5=Buck Owens - Excuse Me (I Think I Have A Heartache)
TTITLE6=Hank Thompson - A Six Pack To Go
TTITLE7=Hank Snow - Miller's Cave
TTITLE8=Jim Reeves - I Missed Me
TTITLE9=Don Gibson - Just One Time
TTITLE10=Faron Young - Your Old Used To Be
TTITLE11=Claude Gray - Family Bible
TTITLE12=Wynn Stewart - Wishful Thinking
TTITLE13=Johnny Horton - North To Alaska
TTITLE14=Loretta Lynn - Honky Tonk Girl
TTITLE15=Webb Pierce - Fallen Angel
TTITLE16=Marty Robbins - Big Iron
TTITLE17=Bob Luman - Let's Think About Living
TTITLE18=Charlie Ryan - Hot Rod Lincoln
TTITLE19=Buck Owens - Above And Beyond
TTITLE20=Ferlin Husky - Wings Of A Dove
TTITLE21=Hank Locklin - Please Help Me, I'm Falling
TTITLE22=Skeeter Davis - (I Can't Help You) I'm Falling Too
TTITLE23=Floyd Cramer - Last Date
EXTD=
EXTT0=
EXTT1=
EXTT2=
EXTT3=
EXTT4=
EXTT5=
EXTT6=
EXTT7=
EXTT8=
EXTT9=
EXTT10=
EXTT11=
EXTT12=
EXTT13=
EXTT14=
EXTT15=
EXTT16=
EXTT17=
EXTT18=
EXTT19=
EXTT20=
EXTT21=
EXTT22=
EXTT23=
PLAYORDER=
